HIERARCHY
ROOT Hips
{
	OFFSET 0.000000 0.000000 0.000000 
	CHANNELS 6 Xposition Yposition Zposition Yrotation Zrotation Xrotation 
	JOINT Lumbar
	{
		OFFSET 0.000000 0.000000 0.000000 
		CHANNELS 3 Zrotation Xrotation Yrotation
		JOINT Neck
		{
			OFFSET 0.000000 0.445665 0.000000 
			CHANNELS 3 Zrotation Xrotation Yrotation
			End Site
			{
				OFFSET 0.000000 0.227535 0.000000 
			}
		}
		JOINT RightShoulder
		{
			OFFSET 0.019635 0.377685 0.194865 
			CHANNELS 3 Zrotation Xrotation Yrotation
			JOINT RightElbow
			{
				OFFSET 0.000000 -0.243375 0.000000 
				CHANNELS 2 Zrotation Yrotation
				JOINT RightWrist
				{
					OFFSET 0.000000 -0.264825 0.000000 
					CHANNELS 2 Zrotation Xrotation
					End Site
					{
						OFFSET 0.006600 -0.176220 0.000990 
					}
				}
			}
		}
		JOINT LeftShoulder
		{
			OFFSET 0.019635 0.377685 -0.194865 
			CHANNELS 3 Zrotation Xrotation Yrotation
			JOINT LeftElbow
			{
				OFFSET 0.000000 -0.243375 0.000000 
				CHANNELS 2 Zrotation Yrotation
				JOINT LeftWrist
				{
					OFFSET 0.000000 -0.264825 0.000000 
					CHANNELS 2 Zrotation Xrotation
					End Site
					{
						OFFSET 0.006600 -0.176220 -0.000990 
					}
				}
			}
		}
	}
	JOINT RightHip
	{
		OFFSET 0.052140 -0.069960 0.075570 
		CHANNELS 3 Zrotation Xrotation Yrotation
		JOINT RightKnee
		{
			OFFSET 0.000000 -0.402270 0.000000 
			CHANNELS 1 Zrotation
			JOINT RightAnkle
			{
				OFFSET 0.000000 -0.404085 0.000000 
				CHANNELS 3 Zrotation Xrotation Yrotation
				End Site
				{
					OFFSET 0.204105 -0.089430 0.008415 
				}
			}
		}
	}
	JOINT LeftHip
	{
		OFFSET 0.052140 -0.069960 -0.075570 
		CHANNELS 3 Zrotation Xrotation Yrotation
		JOINT LeftKnee
		{
			OFFSET 0.000000 -0.402270 0.000000 
			CHANNELS 1 Zrotation
			JOINT LeftAnkle
			{
				OFFSET 0.000000 -0.404085 0.000000 
				CHANNELS 3 Zrotation Xrotation Yrotation
				End Site
				{
					OFFSET 0.204105 -0.089430 -0.008415 
				}
			}
		}
	}
}
MOTION
Frames: 19
Frame Time: 0.02
-0.00015 -0.00011 0.00064 -152.61077 -42.02977 -0.17014 50.78901 1.4061 -5.80718 -2.49248 -0.21624 -0.88884 -27.53598 -6.35942 11.01894 119.49999 93.13507 30.28536 -0.67778 -26.27544 12.26791 -21.91533 118.19222 -77.11782 6.77733 3.0777 46.22465 -1.86646 -5.17361 -19.89889 -6.50726 -2.51227 -3.43947 50.00002 3.50255 8.33953 -25.25791 -6.89484 1.24361 2.85218
0.00013 -8e-05 0.00044 -152.62933 -42.00355 -0.17588 50.78738 1.39853 -5.81401 -2.51183 -0.22598 -0.88983 -27.44067 -6.9299 11.2698 119.52552 92.36232 29.21906 -0.84115 -26.46335 11.64093 -21.58207 118.18977 -79.48263 7.79767 2.67551 46.20949 -1.9245 -5.54476 -19.89766 -6.50474 -2.47349 -3.42001 49.99268 3.50107 8.30615 -25.25663 -6.89758 1.24414 2.85379
0.00041 -5e-05 0.00024 -152.64784 -41.97737 -0.18162 50.78574 1.39099 -5.82081 -2.53113 -0.2357 -0.89082 -27.34582 -7.49794 11.5195 119.551 91.59223 28.15733 -1.00358 -26.65065 11.01587 -21.24985 118.18734 -81.84004 8.81479 2.27455 46.19436 -1.98239 -5.91502 -19.89644 -6.50223 -2.43481 -3.4006 49.98536 3.49961 8.27291 -25.25535 -6.90031 1.24467 2.85539
0.00069 -2e-05 4e-05 -152.66635 -41.95121 -0.18735 50.78411 1.38345 -5.82762 -2.55043 -0.24541 -0.89181 -27.25085 -8.0665 11.76949 119.57646 90.82192 27.09461 -1.16635 -26.838 10.39078 -20.91761 118.18491 -84.19766 9.83202 1.87358 46.17925 -2.04026 -6.28507 -19.89521 -6.49972 -2.39615 -3.38119 49.97804 3.49813 8.23965 -25.25408 -6.90304 1.24519 2.85699
0.00098 2e-05 -0.00016 -152.68489 -41.92504 -0.19308 50.78248 1.37589 -5.83445 -2.56975 -0.25513 -0.8928 -27.1553 -8.6379 12.02086 119.60197 90.04878 26.02658 -1.3303 -27.0259 9.76387 -20.58435 118.18244 -86.5624 10.85238 1.47143 46.1641 -2.09827 -6.65592 -19.89397 -6.4972 -2.35741 -3.36175 49.97071 3.49663 8.20623 -25.25281 -6.90577 1.24573 2.8586
0.00126 5e-05 -0.00035 -152.70334 -41.89885 -0.19881 50.78082 1.36837 -5.84121 -2.58902 -0.26483 -0.89379 -27.06192 -9.19893 12.2671 119.62736 89.28513 24.97799 -1.48959 -27.21191 9.1428 -20.25434 118.18009 -88.90412 11.86256 1.07304 46.14903 -2.15593 -7.02488 -19.89276 -6.49471 -2.31888 -3.34241 49.96339 3.49526 8.17336 -25.25152 -6.9085 1.24624 2.86018
0.00154 8e-05 -0.00055 -152.72195 -41.87271 -0.20456 50.77925 1.36078 -5.84813 -2.60841 -0.27456 -0.89478 -26.96444 -9.77978 12.52317 119.653 88.50341 23.8922 -1.65783 -27.40167 8.51044 -19.91809 118.17753 -91.29025 12.89238 0.6674 46.13382 -2.21422 -7.39727 -19.89151 -6.49217 -2.27995 -3.32288 49.95606 3.49364 8.13945 -25.25027 -6.91123 1.24679 2.86181
0.00182 0.00011 -0.00075 -152.74042 -41.84652 -0.21028 50.77755 1.35327 -5.85485 -2.6276 -0.28429 -0.89577 -26.87044 -10.34314 12.77058 119.67832 87.738 22.8393 -1.81827 -27.58772 7.8889 -19.58774 118.17512 -93.63417 13.9036 0.26868 46.11875 -2.27192 -7.76645 -19.89029 -6.48968 -2.24139 -3.30352 49.94876 3.49223 8.10645 -25.24898 -6.91396 1.24731 2.8634
0.0021 0.00014 -0.00095 -152.7587 -41.82026 -0.21598 50.77585 1.34577 -5.86151 -2.64692 -0.29392 -0.89675 -26.78185 -10.88211 13.0058 119.70363 86.99368 21.83204 -1.96737 -27.77031 7.27869 -19.2639 118.17307 -95.93245 14.89444 -0.12269 46.10377 -2.32897 -8.13208 -19.88911 -6.48725 -2.20328 -3.28437 49.94141 3.49113 8.07474 -25.24764 -6.91668 1.24778 2.86493
0.00238 0.00018 -0.00114 -152.77804 -41.79437 -0.22185 50.77464 1.33799 -5.86906 -2.66662 -0.30383 -0.89774 -26.6656 -11.55235 13.30632 119.73014 86.13146 20.57854 -2.17628 -27.97601 6.59756 -18.90047 118.1695 -98.51133 16.00965 -0.5597 46.08805 -2.38995 -8.51925 -19.88771 -6.48444 -2.16258 -3.26401 49.9341 3.48842 8.03613 -25.2466 -6.91943 1.2485 2.86679
0.00267 0.00021 -0.00135 -152.79517 -41.76774 -0.22733 50.77209 1.33092 -5.87438 -2.68478 -0.31331 -0.89873 -26.60548 -11.95144 13.4722 119.75338 85.51583 19.83404 -2.26253 -28.1309 6.06978 -18.62195 118.16877 -100.48653 16.85785 -0.89823 46.07405 -2.44254 -8.86022 -19.88677 -6.48246 -2.12733 -3.24623 49.92683 3.48902 8.01178 -25.24492 -6.92214 1.24871 2.86795
0.003 0.00025 -0.00161 -152.80587 -41.73891 -0.23193 50.76827 1.3248 -5.87627 -2.70418 -0.32048 -0.89972 -26.71804 -11.55085 13.2384 119.77325 85.60171 20.58916 -1.97912 -28.15993 5.93601 -18.56527 118.1781 -100.88874 17.00632 -0.98268 46.06374 -2.47271 -9.07905 -19.88722 -6.48254 -2.10734 -3.23547 49.91884 3.49963 8.03052 -25.24157 -6.92464 1.24724 2.86698
0.00334 0.00028 -0.00188 -152.81449 -41.70945 -0.23607 50.76254 1.31964 -5.87518 -2.72058 -0.3275 -0.90072 -26.88262 -10.88795 12.87439 119.78843 85.93094 21.83812 -1.5782 -28.13418 5.961 -18.59449 118.18937 -100.67185 16.88212 -0.96567 46.05552 -2.4943 -9.25023 -19.88809 -6.48351 -2.09281 -3.22734 49.91118 3.51357 8.06372 -25.23755 -6.92718 1.24522 2.86529
0.00369 0.00032 -0.00215 -152.8242 -41.6803 -0.24031 50.75625 1.31463 -5.87404 -2.73536 -0.33523 -0.90173 -27.01236 -10.38181 12.59045 119.80253 86.13214 22.79164 -1.25326 -28.1262 5.93109 -18.59352 118.19886 -100.68044 16.8592 -0.98401 46.0468 -2.51949 -9.44068 -19.88872 -6.4842 -2.07554 -3.21803 49.90379 3.52518 8.08659 -25.23381 -6.92971 1.24375 2.86412
0.00401 0.00035 -0.0024 -152.833 -41.65074 -0.24513 50.75648 1.30691 -5.87987 -2.76459 -0.33993 -0.90268 -27.19316 -9.71798 12.22051 119.83163 86.40602 24.0386 -0.8347 -28.15325 5.82947 -18.56128 118.21413 -100.91313 16.92493 -1.04583 46.03549 -2.5461 -9.6427 -19.88966 -6.48431 -2.05919 -3.20856 49.89415 3.53955 8.12173 -25.23026 -6.93198 1.24139 2.86232
0.00438 0.0004 -0.0027 -152.84357 -41.6223 -0.2485 50.7421 1.30533 -5.86915 -2.76066 -0.3513 -0.90375 -27.27534 -9.3187 11.99571 119.82658 86.58801 24.80062 -0.58085 -28.08799 5.91386 -18.6071 118.21534 -100.5455 16.74934 -0.99522 46.03097 -2.5675 -9.80731 -19.88995 -6.48595 -2.04243 -3.20015 49.88984 3.54986 8.13929 -25.22606 -6.93508 1.24026 2.86142
0.00483 0.00046 -0.00307 -152.85657 -41.59359 -0.24894 50.69289 1.31811 -5.82463 -2.68565 -0.37779 -0.90505 -27.10896 -9.73109 12.2299 119.74296 86.44046 24.02017 -0.83225 -27.83315 6.482 -18.91026 118.19766 -98.55988 15.90503 -0.64073 46.0371 -2.57877 -9.89864 -19.88919 -6.4906 -2.02116 -3.19313 49.89536 3.54001 8.06383 -25.22088 -6.93803 1.24725 2.86536
0.00533 0.00054 -0.00348 -152.87204 -41.5667 -0.24779 50.62813 1.33747 -5.7614 -2.57354 -0.41166 -0.90648 -26.83292 -10.41643 12.60909 119.62191 86.19524 22.7488 -1.24952 -27.47579 7.23087 -19.27677 118.16147 -96.01224 14.83909 -0.18008 46.05144 -2.58476 -9.95118 -19.8876 -6.49695 -1.99959 -3.18722 49.90718 3.52725 7.97659 -25.21494 -6.94221 1.25478 2.8699
0.00584 0.00062 -0.00389 -152.88826 -41.5413 -0.24669 50.56719 1.35533 -5.69944 -2.46561 -0.44428 -0.90788 -26.58538 -10.96482 12.90548 119.50904 86.00497 21.75759 -1.57663 -27.1337 7.89008 -19.57369 118.12101 -93.79583 13.9215 0.22004 46.06702 -2.59168 -10.00863 -19.88583 -6.50318 -1.97956 -3.18144 49.91916 3.52145 7.92312 -25.20894 -6.94747 1.25892 2.87268
